<svg xmlns="http://www.w3.org/2000/svg" fill="none" viewBox="0 0 77 56" height="56" width="77">
<g clip-path="url(#clip0_13408_9383)">
<g clip-path="url(#clip1_13408_9383)">
<path fill="#333333" d="M60.3962 32.7824C60.3198 32.7036 59.8734 33.0878 59.7625 33.1518C58.1462 34.0887 55.707 33.667 54.2884 32.4915C51.79 30.421 51.8137 25.4433 54.3071 23.3723C55.7465 22.1767 58.4819 21.618 59.8935 23.1285C59.9872 23.2288 60.2415 23.6847 60.2692 23.7042C60.3303 23.7468 60.396 23.6821 60.396 23.6584V22.4655C60.396 22.4608 60.4544 22.3992 60.4588 22.3992H63.9329C63.98 22.3992 64.0589 22.6199 64.0394 22.6844C63.936 26.1822 64.17 29.7603 64.0394 33.2486C64.0093 34.0567 63.9053 34.8587 63.6499 35.621C62.209 39.9241 56.8497 41.4434 53.5725 38.4166C53.4055 38.2624 52.5135 37.3142 52.5453 37.1529C52.5832 36.9605 55.153 35.3407 55.4872 35.0855C55.6168 35.0648 55.8631 35.4207 55.9809 35.521C57.1904 36.552 59.0216 36.2913 59.9117 34.9446C60.0982 34.6623 60.396 33.9308 60.396 33.6001V32.7827L60.3962 32.7824ZM58.0849 25.4159C55.2401 25.7548 55.5163 30.6249 58.4913 30.4396C61.5571 30.2487 61.2329 25.0407 58.0849 25.4159Z"></path>
<path fill="#333333" d="M12.5755 27.7456C12.6987 27.782 12.6839 28.0129 12.6797 28.1207C12.5742 30.8999 10.4964 33.4325 7.98481 34.1226C4.07225 35.1972 0.363736 32.3018 0.00272069 28.1156L0 19.6842L0.113432 19.4825L3.43247 17.207C3.51765 17.148 3.68089 17.2492 3.68089 17.3402V23.3713L10.7543 19.3705C10.8409 19.4257 10.8328 19.5002 10.8409 19.5912C10.9453 20.751 10.7562 22.0843 10.8405 23.2631L10.7744 23.5026L3.9877 27.4729C3.66059 27.6852 3.6361 27.6532 3.68549 28.1167C3.98309 30.9171 8.0679 31.4221 8.91383 28.5197C8.95464 28.3794 9.03563 27.7458 9.14341 27.7458H12.5757L12.5755 27.7456Z"></path>
<path fill="#333333" d="M47.7568 23.7246V22.5096C47.7568 22.4534 47.8878 22.4048 47.9431 22.3969C48.924 22.2575 50.1989 22.5073 51.2119 22.3969C51.3525 22.3976 51.4115 22.499 51.4006 22.6395L51.3898 34.0325L51.3146 34.13H47.8403C47.8215 34.1176 47.7566 34.0096 47.7566 33.9972V33.0472C47.5412 33.0373 47.3795 33.3267 47.2089 33.4632C45.7489 34.633 43.5715 34.5658 42.0096 33.6567C38.4987 31.6135 38.4018 25.2859 41.7991 23.0691C43.2917 22.0953 46.1539 21.7184 47.397 23.2861C47.5073 23.4253 47.577 23.6904 47.7564 23.7242L47.7568 23.7246ZM45.1533 25.505C42.1172 25.782 42.1386 31.0048 45.399 31.0424C48.8754 31.0824 48.7423 25.1776 45.1533 25.505Z"></path>
<path fill="#333333" d="M66.4828 24.1407C69.5109 20.7043 75.7725 21.9909 76.826 26.7718C77.9484 31.8654 73.4141 35.5539 68.8843 34.0063C64.9253 32.6538 63.6671 27.3361 66.4828 24.1407ZM70.9366 25.502C67.8982 25.5479 67.9323 31.1825 71.0925 31.0606C74.0149 30.9477 74.0153 25.4554 70.9366 25.502Z"></path>
<path fill="#333333" d="M31.3276 22.3992L33.672 28.7179L36.0122 22.4398L36.139 22.397L39.7197 22.4211L39.7975 22.5191L35.2632 34.1554L31.9768 34.1292L31.8916 34.0423L27.518 22.7091C27.4761 22.6435 27.4889 22.3992 27.5603 22.3992H31.3274H31.3276Z"></path>
<path fill="#333333" d="M17.3681 23.7245C17.4263 23.7274 17.4483 23.738 17.4956 23.6947C17.6513 23.5513 17.8143 23.2853 17.9955 23.1276C18.7952 22.4308 20.049 22.1262 21.0718 22.2231C21.1907 22.2344 21.6375 22.3095 21.6375 22.4655V25.8235C21.6375 25.831 21.5728 25.9015 21.5532 25.9112C21.4278 25.9739 20.7167 25.7698 20.4881 25.7552C16.2556 25.4837 17.5927 31.1512 17.3702 33.9114C17.3662 34.0439 17.2641 34.1504 17.14 34.1544L13.8109 34.1294C13.791 34.1197 13.7266 34.0494 13.7266 34.0417V22.4653C13.7266 22.4606 13.785 22.399 13.7893 22.399H17.2635C17.2729 22.399 17.3681 22.5371 17.3681 22.5536V23.7245Z"></path>
<path fill="#333333" d="M22.8714 22.3989H26.3455C26.3499 22.3989 26.4083 22.4606 26.4083 22.4652V34.0414C26.4083 34.0492 26.3438 34.1194 26.3239 34.1291H22.8929C22.8731 34.1194 22.8086 34.0492 22.8086 34.0414V22.4652C22.8086 22.4531 22.8576 22.4215 22.8714 22.3989Z"></path>
<path fill="#333333" d="M24.348 17.0209C25.133 16.8764 26.1627 17.5031 26.4992 18.26C27.3715 20.2227 25.2781 22.038 23.5339 20.9926C21.7788 19.9405 22.4567 17.3688 24.348 17.0209Z"></path>
</g>
</g>
<defs>
<clipPath id="clip0_13408_9383">
<rect fill="white" height="56" width="77"></rect>
</clipPath>
<clipPath id="clip1_13408_9383">
<rect transform="translate(0 17)" fill="white" height="23" width="77"></rect>
</clipPath>
</defs>
</svg>
