<svg xmlns="http://www.w3.org/2000/svg" fill="none" viewBox="0 0 108 56" height="56" width="108">
<g clip-path="url(#clip0_13408_9449)">
<path fill="#333333" d="M14.5137 27.8612C14.5137 23.6831 17.9536 20.3042 22.2548 20.3042C26.586 20.3042 30.0269 23.685 30.0269 27.8612C30.0269 32.0084 26.586 35.4493 22.2548 35.4493C17.9536 35.4493 14.5137 32.0046 14.5137 27.8612ZM26.3099 27.8612C26.3099 25.7727 24.4974 23.9292 22.2548 23.9292C20.0432 23.9292 18.2307 25.7727 18.2307 27.8612C18.2307 29.9808 20.0432 31.8243 22.2548 31.8243C24.5011 31.8243 26.3099 29.9808 26.3099 27.8612Z"></path>
<path fill="#333333" d="M92.5781 27.9843C92.5781 23.407 96.2951 20.3042 99.675 20.3042C101.979 20.3042 103.3 21.0104 104.19 22.3627L104.544 20.5784H107.999V35.1722H104.544L104.098 33.6697C103.085 34.7759 101.825 35.454 99.675 35.454C96.3571 35.4493 92.5781 32.5305 92.5781 27.9843ZM104.374 27.9533C104.37 26.8823 103.941 25.8568 103.181 25.1024C102.42 24.348 101.392 23.9265 100.321 23.9306C99.2496 23.9347 98.2242 24.3641 97.4698 25.1243C96.7154 25.8845 96.2938 26.9133 96.298 27.9843C96.298 30.0118 98.1104 31.8243 100.323 31.8243C102.563 31.8243 104.374 30.0118 104.374 27.9533Z"></path>
<path fill="#333333" d="M88.3327 22.2696V20.5792H84.5547V35.1721H88.3327V27.3089C88.3327 24.9432 89.501 23.7149 91.5257 23.7149C91.66 23.7149 91.7877 23.7243 91.9126 23.7365L92.6132 20.2139C90.6439 20.2242 89.2165 20.8994 88.3327 22.2696Z"></path>
<path fill="#333333" d="M50.3659 22.2706V20.5802L46.5879 20.5887L46.6198 35.1797L50.3979 35.1712L50.3772 27.3089C50.3716 24.9443 51.537 23.7131 53.5636 23.7084C53.6929 23.7088 53.822 23.716 53.9505 23.73L54.6474 20.2036C52.6752 20.2196 51.2459 20.8976 50.3659 22.2706Z"></path>
<path fill="#333333" d="M31.3379 29.5195V20.5801H35.115V29.0593C35.115 30.9329 36.1593 32.0391 37.9718 32.0391C39.9993 32.0391 41.1648 30.8098 41.1648 28.4442V20.5801H44.9438V35.172H41.1676V33.4816C40.2773 34.864 38.833 35.5402 36.8364 35.5402C33.4575 35.5411 31.3379 33.0834 31.3379 29.5195Z"></path>
<path fill="#333333" d="M68.125 27.8782C68.1335 23.7921 71.0579 20.2958 75.6961 20.3042C79.9973 20.3127 83.0316 23.7583 83.0212 27.8171C83.022 28.2184 82.9906 28.6191 82.9273 29.0154L71.8073 28.9948C72.2336 30.7462 73.6752 32.0084 75.8567 32.0131C77.1771 32.0131 78.5914 31.5266 79.4535 30.4222L82.0305 32.4883C80.7054 34.3599 78.3679 35.4615 75.8811 35.4568C71.4908 35.4418 68.1175 32.1483 68.125 27.8782ZM79.2178 26.3624C79.0056 24.888 77.472 23.7479 75.6595 23.7451C73.9081 23.7451 72.4938 24.7838 71.9378 26.3493L79.2178 26.3624Z"></path>
<path fill="#333333" d="M54.6719 31.9912L58.0301 30.2332C58.5852 31.4362 59.6952 32.1452 61.2682 32.1452C62.7173 32.1452 63.2723 31.6831 63.2723 31.0352C63.2723 28.6874 55.317 30.1101 55.317 24.7431C55.317 21.783 57.9071 20.2109 61.1133 20.2109C63.5493 20.2109 65.7074 21.29 66.8794 23.294L63.5512 25.0549C63.0582 24.0679 62.1331 23.5129 60.9611 23.5129C59.821 23.5129 59.2651 23.9139 59.2651 24.5919C59.2651 26.8739 67.2203 25.4249 67.2203 30.884C67.2203 33.721 64.9082 35.4471 61.1771 35.4471C58.001 35.4443 55.781 34.3962 54.6719 31.9912Z"></path>
<path fill="#333333" d="M-0.486328 27.8612C-0.486328 23.653 2.95364 20.2731 7.25478 20.2731C8.54802 20.2641 9.82318 20.5769 10.9654 21.1835C12.1076 21.7901 13.0809 22.6714 13.7976 23.7479L10.5727 25.6186C10.1995 25.0853 9.70285 24.6504 9.12508 24.3508C8.54731 24.0512 7.90561 23.8959 7.25478 23.8981C5.04317 23.8981 3.23068 25.7416 3.23068 27.8612C3.23068 29.9808 5.04317 31.8242 7.25478 31.8242C7.9363 31.8287 8.60757 31.6583 9.20453 31.3295C9.80149 31.0007 10.3042 30.5244 10.6647 29.946L13.8577 31.8505C13.1497 32.9585 12.1727 33.8692 11.0179 34.4978C9.86297 35.1264 8.56776 35.4524 7.2529 35.4455C2.95364 35.4492 -0.486328 32.0045 -0.486328 27.8612Z"></path>
</g>
<defs>
<clipPath id="clip0_13408_9449">
<rect fill="white" height="56" width="108"></rect>
</clipPath>
</defs>
</svg>
