<svg xmlns="http://www.w3.org/2000/svg" fill="none" viewBox="0 0 86 56" height="56" width="86">
<g clip-path="url(#clip0_13408_9411)">
<path fill="#333333" d="M0.00390625 28.2402H11.6331L10.998 29.1047H0.00390625V28.2402Z"></path>
<path fill="#333333" d="M0.00390625 26.6367H12.8146L12.1783 27.5H0.00390625V26.6367Z"></path>
<path fill="#333333" d="M0.00390625 29.8477H10.4524L9.82003 30.7062H0.00390625V29.8477Z"></path>
<path fill="#333333" d="M85.9979 29.1041H74.4141L75.0489 28.2402H85.9979V29.1041Z"></path>
<path fill="#333333" d="M86.002 30.7062L73.2402 30.7074L73.8724 29.8477H86.002V30.7062Z"></path>
<path fill="#333333" d="M76.2312 26.6367H85.9996V27.5006L75.5957 27.5012L76.2312 26.6367Z"></path>
<path fill="#333333" d="M11.2754 30.704L16.7939 23.2065H23.6419C24.3988 23.2065 24.3889 23.4939 24.019 23.9952C23.6433 24.5041 23.004 25.3792 22.6214 25.8959C22.4272 26.1584 22.076 26.6365 23.2396 26.6365H32.4137C31.6507 27.6817 29.176 30.704 24.7321 30.704L11.2754 30.704Z"></path>
<path fill="#333333" d="M42.8707 26.6372L39.8784 30.7053H31.9844C31.9844 30.7053 34.9754 26.6378 34.9781 26.6378L42.8707 26.6372Z"></path>
<path fill="#333333" d="M54.2893 26.6372L51.2954 30.7047H43.4043C43.4043 30.7047 46.3956 26.6372 46.3982 26.6372H54.2893Z"></path>
<path fill="#333333" d="M56.856 26.6372C56.8562 26.6372 56.2795 27.4258 55.9992 27.8044C55.0079 29.1441 55.884 30.7047 59.119 30.7047H71.7923L74.7856 26.6372H56.856Z"></path>
<path fill="#333333" d="M15.1244 18.5464L12.377 22.2791H27.3507C28.1075 22.2791 28.0976 22.5665 27.7277 23.0677C27.3521 23.5761 26.7233 24.4613 26.3407 24.9779C26.1465 25.2398 25.7953 25.7179 26.9588 25.7179H33.0821C33.0821 25.7179 34.0691 24.3748 34.8964 23.252C36.022 21.7246 34.994 18.5464 30.9703 18.5464H15.1244Z"></path>
<path fill="#333333" d="M54.964 25.718H35.6562L40.936 18.5464H48.8273L45.8017 22.6583H49.3238L52.3519 18.5464H60.2421L54.964 25.718Z"></path>
<path fill="#333333" d="M71.1682 18.5464L65.8895 25.718H57.5273C57.5273 25.718 62.8078 18.5464 62.8105 18.5464H71.1682Z"></path>
<path fill="#333333" d="M56.5296 39.7775C55.7413 39.7775 55.1283 39.5358 54.6911 39.0525C54.2538 38.5692 54.0352 37.8989 54.0352 37.0415V36.5408C54.0352 35.9713 54.1418 35.4837 54.3545 35.0779C54.5675 34.6724 54.8668 34.3616 55.2522 34.1459C55.6376 33.9301 56.0894 33.8223 56.6072 33.8223C57.0214 33.8223 57.3926 33.8928 57.7206 34.0337C58.0485 34.1748 58.3335 34.3804 58.575 34.6507L57.8157 35.4535C57.6258 35.2636 57.4329 35.1313 57.2374 35.0565C57.0416 34.9817 56.8374 34.9442 56.6244 34.9442C56.2102 34.9442 55.892 35.0839 55.6707 35.3628C55.4491 35.642 55.3384 36.0519 55.3384 36.5928V36.9897C55.3384 37.5307 55.4406 37.9435 55.645 38.2282C55.8491 38.513 56.1469 38.6554 56.5382 38.6554C56.8949 38.6554 57.1695 38.5377 57.3624 38.3017C57.5552 38.0657 57.6515 37.7609 57.6515 37.3867H56.5121V36.3338H58.9203V37.335C58.9203 37.8473 58.8223 38.2859 58.6267 38.6511C58.4312 39.0167 58.1548 39.2956 57.7981 39.4883C57.4415 39.681 57.0185 39.7775 56.5296 39.7775Z"></path>
<path fill="#333333" d="M59.8848 39.6501V35.2484H61.0671V36.3444C61.1302 36.1489 61.2153 35.9633 61.3216 35.7878C61.4283 35.6124 61.5663 35.4684 61.7361 35.3562C61.9055 35.244 62.1171 35.188 62.3704 35.188C62.4222 35.188 62.4696 35.1895 62.5129 35.1923C62.5558 35.1953 62.6092 35.2024 62.6726 35.2138V36.3704C62.6264 36.3647 62.576 36.3604 62.5215 36.3575C62.4667 36.3546 62.4136 36.3532 62.3618 36.3532C62.0454 36.3532 61.7865 36.4134 61.585 36.5343C61.3835 36.6552 61.2339 36.7847 61.1361 36.9227V39.65L59.8848 39.6501Z"></path>
<path fill="#333333" d="M65.2221 39.7524C64.5662 39.7524 64.0495 39.5625 63.673 39.1828C63.2958 38.803 63.1074 38.2824 63.1074 37.6207V37.2754C63.1074 36.6139 63.2959 36.093 63.673 35.7133C64.0495 35.3334 64.5662 35.1436 65.2221 35.1436C65.878 35.1436 66.3944 35.3334 66.7712 35.7133C67.148 36.0931 67.3367 36.6139 67.3367 37.2754V37.6207C67.3367 38.2824 67.148 38.8031 66.7712 39.1828C66.3944 39.5625 65.878 39.7524 65.2221 39.7524ZM65.2221 38.7081C65.4926 38.7081 65.7038 38.6161 65.8564 38.432C66.009 38.2479 66.0851 37.9688 66.0851 37.5948V37.3013C66.0851 36.9273 66.009 36.6484 65.8564 36.4641C65.7038 36.28 65.4926 36.1879 65.2221 36.1879C64.9516 36.1879 64.7401 36.28 64.5878 36.4641C64.4352 36.6484 64.3591 36.9273 64.3591 37.3013V37.5948C64.3591 37.9688 64.4352 38.2479 64.5878 38.432C64.7401 38.6161 64.9516 38.7081 65.2221 38.7081Z"></path>
<path fill="#333333" d="M69.5508 39.7346C69.1192 39.7346 68.7882 39.5822 68.558 39.2771C68.3279 38.9721 68.2129 38.5407 68.2129 37.9825V35.2466H69.4643V37.9048C69.4643 38.1409 69.5146 38.3277 69.6154 38.4659C69.7161 38.6039 69.8758 38.6729 70.0944 38.6729C70.2553 38.6729 70.3966 38.6341 70.5172 38.5564C70.6381 38.4788 70.7358 38.3795 70.8108 38.2586V35.2466H72.0622V39.6482H70.8798V38.88C70.7474 39.1333 70.5706 39.3389 70.349 39.4971C70.1273 39.6553 69.8613 39.7346 69.5508 39.7346Z"></path>
<path fill="#333333" d="M73.1953 41.2889V35.2475H74.3777V36.0069C74.4986 35.7424 74.6725 35.5352 74.8997 35.3856C75.1272 35.2359 75.3873 35.1611 75.6809 35.1611C76.1756 35.1611 76.5626 35.3497 76.8417 35.7264C77.1207 36.1034 77.2603 36.6198 77.2603 37.2757V37.621C77.2603 38.2769 77.1207 38.7934 76.8417 39.1701C76.5626 39.5471 76.1757 39.7355 75.6809 39.7355C75.1112 39.7355 74.6997 39.4708 74.4467 38.9414V41.2889L73.1953 41.2889ZM75.2063 36.214C74.8896 36.214 74.6366 36.3492 74.4467 36.6197V38.2854C74.6366 38.5501 74.8896 38.6824 75.2063 38.6824C75.4652 38.6824 75.6637 38.5889 75.8018 38.402C75.9398 38.215 76.0088 37.9461 76.0088 37.595V37.3015C76.0088 36.9506 75.9398 36.6816 75.8018 36.4945C75.6637 36.3076 75.4652 36.214 75.2063 36.214Z"></path>
</g>
<defs>
<clipPath id="clip0_13408_9411">
<rect fill="white" height="56" width="86"></rect>
</clipPath>
</defs>
</svg>
