<svg xmlns="http://www.w3.org/2000/svg" fill="none" viewBox="0 0 160 56" height="56" width="160">
<path fill="#333333" d="M6.3474 35.4324C4.17592 35.4324 2.61691 34.9313 1.55901 33.9291C0.50111 32.8712 0 31.4792 0 29.6418H2.67259C2.67259 31.0338 2.95098 32.036 3.56345 32.7598C4.17592 33.4836 5.06678 33.8734 6.29172 33.8734C7.29394 33.8734 8.12912 33.6507 8.74159 33.1496C9.35406 32.6485 9.68813 31.9803 9.68813 31.0894C9.68813 30.4213 9.5211 29.8088 9.13134 29.3077C8.74159 28.8066 8.12912 28.3612 7.23826 28.0271L5.0111 27.1362C3.45209 26.5238 2.33851 25.7999 1.67037 25.0204C1.00222 24.2409 0.668147 23.3501 0.668147 22.3479C0.668147 21.6797 0.779505 21.0672 1.0579 20.5661C1.33629 20.0093 1.67037 19.5639 2.17148 19.1742C2.67259 18.7844 3.22938 18.506 3.89752 18.2833C4.56567 18.0606 5.34518 17.9492 6.12468 17.9492C6.95987 17.9492 7.73937 18.0606 8.40752 18.2833C9.07566 18.506 9.68813 18.7844 10.1336 19.1742C10.6347 19.5639 10.9687 20.0093 11.2471 20.5661C11.5255 21.1229 11.6369 21.7354 11.6369 22.3479C11.6369 22.6819 11.5812 23.016 11.5255 23.4058L8.85295 23.1274C8.85295 23.016 8.85295 22.9046 8.90863 22.7933C8.90863 22.6819 8.90863 22.5706 8.90863 22.4592C8.90863 21.5127 8.68591 20.7888 8.1848 20.2321C7.68369 19.7309 7.01554 19.4525 6.12468 19.4525C5.2895 19.4525 4.62135 19.6753 4.12024 20.1207C3.61913 20.5661 3.34074 21.1229 3.34074 21.8467C3.34074 22.4035 3.50777 22.9046 3.89752 23.4058C4.28728 23.8512 4.95542 24.2966 5.90197 24.6864L8.12912 25.5772C9.63245 26.1897 10.746 26.8578 11.3585 27.693C12.0266 28.5282 12.3607 29.4748 12.3607 30.5883C12.3607 32.0917 11.8039 33.2052 10.746 34.0961C9.74381 34.987 8.29616 35.4324 6.3474 35.4324Z"></path>
<path fill="#333333" d="M14.0859 40.6109V24.3526H16.7028V26.4684C17.0926 25.7446 17.5937 25.1878 18.3175 24.7424C19.0414 24.2969 19.8209 24.0742 20.656 24.0742C21.3799 24.0742 21.9923 24.2413 22.6048 24.5197C23.2173 24.798 23.7184 25.1878 24.1638 25.7446C24.6093 26.2457 24.9433 26.8582 25.166 27.5263C25.3888 28.1945 25.5558 28.974 25.5558 29.7535C25.5558 30.533 25.4444 31.3125 25.166 31.9806C24.9433 32.7045 24.5536 33.2612 24.1638 33.818C23.7184 34.3191 23.2173 34.7089 22.6048 35.043C21.9923 35.3214 21.3799 35.4884 20.656 35.4884C19.7652 35.4884 18.9857 35.2657 18.3175 34.8203C17.5937 34.3748 17.0926 33.818 16.7028 33.0942V40.6665L14.0859 40.6109ZM19.7652 33.484C20.2106 33.484 20.6561 33.3726 20.9901 33.2056C21.3799 33.0385 21.7139 32.7601 21.9923 32.4261C22.2707 32.092 22.4935 31.7022 22.6048 31.2568C22.7718 30.8114 22.8275 30.3103 22.8275 29.7535C22.8275 29.1967 22.7718 28.7512 22.6048 28.3058C22.4378 27.8604 22.2151 27.4706 21.9923 27.1366C21.7139 26.8025 21.3799 26.5241 20.9901 26.3571C20.6004 26.19 20.2106 26.0787 19.7652 26.0787C19.3198 26.0787 18.8743 26.19 18.4846 26.3571C18.0948 26.5241 17.7607 26.8025 17.4824 27.1366C17.204 27.4706 16.9812 27.8604 16.8142 28.3058C16.6472 28.7512 16.5915 29.2524 16.5915 29.7535C16.5915 30.2546 16.6472 30.7557 16.8142 31.2568C16.9812 31.7022 17.204 32.092 17.4824 32.4261C17.7607 32.7601 18.0948 33.0385 18.4846 33.2056C18.8743 33.3726 19.3198 33.484 19.7652 33.484Z"></path>
<path fill="#333333" d="M32.8491 27.1932C32.9048 26.8592 32.8491 26.5808 32.7935 26.4137C32.6821 26.2467 32.5151 26.191 32.2924 26.191C32.014 26.191 31.7912 26.3024 31.5128 26.5251C31.2345 26.7478 30.9561 27.0819 30.7333 27.5273C30.5106 27.9727 30.2879 28.5295 30.1766 29.1977C30.0652 29.8658 29.9538 30.6453 29.9538 31.5362V35.0996H27.2812V24.3536H29.9538V26.9148C30.2322 26.0797 30.622 25.4115 31.1788 24.8547C31.6799 24.2979 32.4037 24.0195 33.2389 24.0195C33.74 24.0195 34.1298 24.1309 34.5195 24.2979C34.8536 24.5206 35.132 24.7434 35.299 25.0774C35.4661 25.4115 35.5774 25.8013 35.6331 26.191C35.6888 26.5808 35.6888 27.0262 35.6331 27.4159L32.8491 27.1932Z"></path>
<path fill="#333333" d="M38.1381 22.9071C37.637 22.9071 37.2473 22.74 36.9689 22.4617C36.6905 22.1833 36.5234 21.7935 36.5234 21.3481C36.5234 20.9026 36.6905 20.5129 36.9689 20.2345C37.2473 19.9561 37.637 19.7891 38.1381 19.7891C38.6392 19.7891 39.029 19.9561 39.3074 20.2345C39.5858 20.5129 39.7528 20.9026 39.7528 21.3481C39.7528 21.7935 39.5858 22.1833 39.3074 22.4617C39.029 22.74 38.6392 22.9071 38.1381 22.9071ZM36.8018 35.1008V24.3547H39.4744V35.1564H36.8018V35.1008Z"></path>
<path fill="#333333" d="M44.321 35.0996H41.6484V24.3536H44.321V27.6387C45.1005 25.2445 46.4925 24.0195 48.4413 24.0195C49.5548 24.0195 50.4457 24.4093 51.0582 25.1888C51.6706 25.9683 51.949 27.0819 51.949 28.5852V35.0996H49.2764V28.5852C49.2764 27.75 49.1651 27.1376 48.8867 26.7478C48.664 26.358 48.2185 26.191 47.6618 26.191C46.5482 26.191 45.713 26.8592 45.1005 28.1398C44.4881 29.4204 44.2097 31.2578 44.2097 33.5963L44.321 35.0996Z"></path>
<path fill="#333333" d="M59.0758 32.5417C58.4634 32.5417 57.9622 32.5417 57.6282 32.5974C57.2941 32.6531 57.0157 32.7088 56.8487 32.7645C56.6816 32.8201 56.5703 32.9315 56.5146 32.9872C56.4589 33.0985 56.4589 33.1542 56.4589 33.2656C56.4589 33.4883 56.6259 33.6553 56.9043 33.711C57.2384 33.8224 57.7952 33.878 58.6304 33.878H59.5769C61.4143 33.878 62.7506 34.1564 63.7529 34.6575C64.6994 35.2143 65.2005 35.9382 65.2005 36.8847C65.2005 38.0539 64.6437 39.0005 63.4745 39.7243C62.3052 40.4481 60.6905 40.7822 58.5747 40.7822C56.9043 40.7822 55.568 40.5595 54.5658 40.0584C53.5636 39.5573 53.0625 38.9448 53.0625 38.1096C53.0625 37.4415 53.3409 36.8847 53.842 36.4393C54.3988 35.9381 55.1226 35.6041 56.0692 35.3814C55.3453 35.27 54.7885 35.103 54.4545 34.8246C54.1204 34.5462 53.8977 34.2678 53.8977 33.9337C53.8977 33.4883 54.1204 33.0985 54.5102 32.7645C54.8999 32.4304 55.5124 32.152 56.3476 31.9293C55.568 31.5395 54.9556 31.0384 54.5102 30.4259C54.0647 29.8135 53.842 29.0896 53.842 28.2545C53.842 27.642 53.9534 27.0852 54.2318 26.5284C54.5102 26.0273 54.8442 25.5819 55.2897 25.1921C55.7351 24.8024 56.2919 24.524 56.96 24.3013C57.6282 24.0785 58.2963 23.9672 59.0758 23.9672C59.9667 23.9672 60.6348 24.1899 61.0803 24.1899C61.9711 24.1899 62.4722 23.6331 62.4722 22.5195L65.1448 22.8536C65.1448 23.132 65.0891 23.3547 64.9221 23.5774C64.7551 23.8001 64.588 24.0229 64.3096 24.1899C64.0312 24.3569 63.7529 24.524 63.4188 24.6353C63.0847 24.7467 62.695 24.858 62.3609 24.858C63.029 25.2478 63.4745 25.7489 63.8085 26.3057C64.1426 26.8625 64.3096 27.475 64.3096 28.1988C64.3096 28.8112 64.1983 29.368 63.9199 29.9248C63.6415 30.4259 63.3074 30.8714 62.862 31.2611C62.4166 31.6509 61.8598 31.9293 61.1916 32.152C60.5235 32.4304 59.7996 32.5417 59.0758 32.5417ZM58.7974 39.3902C59.9667 39.3902 60.8575 39.2232 61.47 38.8335C62.1382 38.4994 62.4166 37.9983 62.4166 37.4415C62.4166 36.9404 62.1938 36.6063 61.6927 36.3836C61.1916 36.1609 60.5235 36.0495 59.5769 36.0495H58.6304C57.6838 36.0495 56.96 36.2165 56.4589 36.4949C55.9578 36.7733 55.6794 37.2188 55.6794 37.7199C55.6794 38.221 55.9578 38.6107 56.4589 38.8891C57.0157 39.2232 57.7952 39.3902 58.7974 39.3902ZM59.0758 31.1498C59.9667 31.1498 60.5792 30.8714 61.0246 30.3146C61.47 29.7578 61.6927 29.0896 61.6927 28.3101C61.6927 27.5306 61.47 26.8625 61.0246 26.3057C60.5792 25.7489 59.911 25.5262 59.0758 25.5262C58.185 25.5262 57.5725 25.8046 57.0714 26.3057C56.6259 26.8625 56.4032 27.5306 56.4032 28.3101C56.4032 29.0896 56.6259 29.8135 57.0714 30.3146C57.5725 30.8714 58.185 31.1498 59.0758 31.1498Z"></path>
<path fill="#333333" d="M73.9929 35.1001H71.3203V18.5078H73.9929V25.8574H81.5652V18.5078H84.2378V35.1558H81.5652V27.4164H73.9929V35.1001Z"></path>
<path fill="#333333" d="M88.8601 29.8677C88.8601 30.6472 88.9714 31.3154 89.1385 31.8722C89.3055 32.429 89.4726 32.8187 89.7509 33.1528C89.9737 33.4869 90.3077 33.7096 90.5861 33.8209C90.9202 33.9323 91.1986 33.988 91.5327 33.988C92.2008 33.988 92.7576 33.7653 93.1474 33.3755C93.5371 32.9858 93.8155 32.2619 93.9825 31.3711L96.4881 31.6495C96.2097 32.8187 95.5972 33.7653 94.7064 34.4891C93.8155 35.1572 92.7576 35.547 91.477 35.547C90.6975 35.547 89.9737 35.4356 89.3055 35.1572C88.6374 34.8788 88.0806 34.4891 87.6351 33.988C87.1897 33.4869 86.8 32.8744 86.5773 32.2063C86.3545 31.4824 86.1875 30.7586 86.1875 29.8677C86.1875 28.9769 86.2989 28.1417 86.5773 27.4179C86.8556 26.694 87.1897 26.0816 87.6351 25.6361C88.0806 25.135 88.6374 24.801 89.3055 24.5226C89.9737 24.2998 90.6975 24.1328 91.477 24.1328C92.3679 24.1328 93.203 24.2998 93.8155 24.6339C94.4837 24.968 95.0404 25.4134 95.4302 25.9145C95.8756 26.4713 96.154 27.0838 96.3211 27.7519C96.4881 28.4201 96.5995 29.1439 96.5438 29.9234L88.8601 29.8677ZM91.477 25.5248C90.7532 25.5248 90.1964 25.7475 89.7509 26.2486C89.3055 26.694 89.0271 27.4735 88.9158 28.5314H93.9269C93.8712 27.5292 93.6485 26.8054 93.2587 26.3043C92.8133 25.7475 92.2565 25.5248 91.477 25.5248Z"></path>
<path fill="#333333" d="M107.739 35.0996H105.122V32.8168C104.732 33.652 104.176 34.3201 103.507 34.7656C102.839 35.211 102.06 35.4337 101.113 35.4337C100.111 35.4337 99.3315 35.211 98.719 34.7099C98.1065 34.2088 97.8281 33.5406 97.8281 32.5941C97.8281 31.3135 98.4406 30.3112 99.7212 29.5874C101.002 28.8636 102.784 28.4182 105.122 28.1954C105.066 27.3046 104.899 26.6364 104.565 26.191C104.231 25.7456 103.73 25.5229 103.062 25.5229C102.394 25.5229 101.837 25.7456 101.559 26.1353C101.225 26.5808 101.058 27.1376 101.002 27.8614L98.4406 27.583C98.552 26.5251 98.9974 25.6899 99.8326 25.0218C100.668 24.3536 101.726 24.0195 103.118 24.0195C103.786 24.0195 104.398 24.1309 105.011 24.2979C105.567 24.465 106.069 24.7434 106.458 25.1331C106.848 25.5229 107.182 25.9683 107.405 26.5251C107.628 27.0819 107.739 27.75 107.739 28.4738V35.0996ZM105.122 29.4761C103.619 29.5317 102.449 29.8101 101.726 30.3112C100.946 30.8124 100.556 31.4248 100.556 32.26C100.556 32.7611 100.668 33.1509 100.946 33.4293C101.225 33.7077 101.559 33.8747 102.004 33.8747C102.449 33.8747 102.839 33.7633 103.173 33.5406C103.507 33.3179 103.841 32.9838 104.12 32.5941C104.398 32.2043 104.621 31.7032 104.788 31.2021C105.011 30.6453 105.066 30.0885 105.122 29.4761Z"></path>
<path fill="#333333" d="M112.477 35.1001H109.805V18.5078H112.477V35.1001Z"></path>
<path fill="#333333" d="M118.933 35.4336C116.761 35.4336 115.704 34.2644 115.704 31.8702V25.7455H113.922V24.3535H115.704V20.7344H118.376V24.3535H121.773V25.7455H118.376V32.3713C118.376 32.9281 118.432 33.3178 118.543 33.5962C118.655 33.8189 118.822 33.986 119.1 33.986C119.378 33.986 119.545 33.8746 119.657 33.5962C119.768 33.3735 119.824 32.9281 119.88 32.3713L122.274 32.6497C122.162 33.5405 121.828 34.2644 121.216 34.7098C120.603 35.1552 119.88 35.4336 118.933 35.4336Z"></path>
<path fill="#333333" d="M126.118 35.1001H123.445V18.5078H126.118V27.6392C126.897 25.245 128.289 24.02 130.238 24.02C131.352 24.02 132.243 24.4098 132.855 25.1893C133.468 25.9688 133.746 27.0824 133.746 28.5857V35.1001H131.073V28.5857C131.073 27.7505 130.962 27.138 130.684 26.7483C130.461 26.3585 130.015 26.1915 129.459 26.1915C128.345 26.1915 127.51 26.8597 126.897 28.1403C126.285 29.4209 126.007 31.2583 126.007 33.5968L126.118 35.1001Z"></path>
<path fill="#333333" d="M148.941 21.4605C147.326 22.8525 145.99 24.3001 144.82 25.8035C147.382 24.0217 150.444 23.0752 153.451 23.2979C155.733 23.4649 157.849 24.3001 159.353 25.191C159.353 25.191 159.909 24.1888 159.575 19.7345C159.408 17.3403 159.575 15.7812 159.575 15.7812C157.404 15.8926 151.892 19.0106 148.941 21.4605Z"></path>
<path fill="#333333" d="M153.389 24.8545C149.937 24.6317 146.429 26.0794 143.812 28.6963C145.427 27.8054 147.543 27.0816 150.16 27.3043C153.668 27.5827 156.118 29.4201 157.51 30.9235C158.289 29.7542 158.846 28.3622 159.069 26.9146C157.677 25.9124 155.728 25.0215 153.389 24.8545Z"></path>
<path fill="#333333" d="M150.06 28.8114C145.383 28.4217 142.432 31.484 141.653 32.4306C141.096 33.0987 140.595 33.8782 140.205 34.7691C140.149 34.8804 140.094 35.0475 140.094 35.1588C140.094 35.1588 143.824 35.994 149.615 35.3259C155.405 34.7134 156.575 32.0965 156.575 32.0965C155.35 30.7602 153.178 29.0341 150.06 28.8114Z"></path>
<path fill="#333333" d="M147.987 20.2912C150.159 18.4538 152.609 16.8948 155.226 15.7812L149.491 15.8369C144.146 15.8926 139.914 20.2356 139.914 25.5251L139.97 31.0373C141.417 27.7522 143.923 23.7433 147.987 20.2912Z"></path>
</svg>
